<?xml version="1.0" encoding="UTF-8" standalone="no"?>
<svg
   id="Layer_2"
   data-name="Layer 2"
   viewBox="0 0 1200 400"
   version="1.1"
   sodipodi:docname="blue.svg"
   inkscape:version="1.3 (0e150ed6c4, 2023-07-21)"
   width="1200"
   height="400"
   inkscape:export-filename="dark blue.png"
   inkscape:export-xdpi="96"
   inkscape:export-ydpi="96"
   xmlns:inkscape="http://www.inkscape.org/namespaces/inkscape"
   xmlns:sodipodi="http://sodipodi.sourceforge.net/DTD/sodipodi-0.dtd"
   xmlns="http://www.w3.org/2000/svg"
   xmlns:svg="http://www.w3.org/2000/svg">
  <sodipodi:namedview
     id="namedview100"
     pagecolor="#ffffff"
     bordercolor="#000000"
     borderopacity="0.25"
     inkscape:showpageshadow="2"
     inkscape:pageopacity="0.0"
     inkscape:pagecheckerboard="0"
     inkscape:deskcolor="#d1d1d1"
     inkscape:zoom="0.9793429"
     inkscape:cx="754.58759"
     inkscape:cy="254.76266"
     inkscape:window-width="1920"
     inkscape:window-height="1009"
     inkscape:window-x="-8"
     inkscape:window-y="-8"
     inkscape:window-maximized="1"
     inkscape:current-layer="Layer_2" />
  <defs
     id="defs1">
    <style
       id="style1">&#10;      .cls-1, .cls-2 {&#10;        fill: #fff;&#10;      }&#10;&#10;      .cls-3 {&#10;        fill: #fcb51c;&#10;      }&#10;&#10;      .cls-2 {&#10;        font-family: FFShamelFamily-SansOneBold, 'FF Shamel Family';&#10;        font-size: 24.77px;&#10;        font-weight: 700;&#10;      }&#10;&#10;      .cls-4 {&#10;        fill: none;&#10;      }&#10;    </style>
  </defs>
  <g
     id="g28"
     style="fill:#012447;fill-opacity:1"
     transform="matrix(3.2893655,0,0,3.2893655,-169.13589,-3437.8902)">
    <g
       id="g23"
       style="fill:#012447;fill-opacity:1">
      <g
         id="g10"
         style="fill:#012447;fill-opacity:1">
        <path
           class="cls-1"
           d="m 315.33,1120.71 c 0.15,0.15 0.34,0.23 0.54,0.23 0.2,0 0.39,-0.08 0.54,-0.23 0.15,-0.15 0.22,-0.34 0.22,-0.54 0,-0.2 -0.08,-0.39 -0.22,-0.54 -0.3,-0.29 -0.77,-0.29 -1.08,0 -0.15,0.15 -0.23,0.33 -0.23,0.54 0,0.21 0.08,0.39 0.23,0.54 z"
           id="path1"
           style="fill:#012447;fill-opacity:1" />
        <path
           class="cls-1"
           d="m 313.9,1120.94 c 0.21,0 0.39,-0.08 0.54,-0.23 0.15,-0.15 0.22,-0.34 0.22,-0.54 0,-0.2 -0.08,-0.39 -0.22,-0.54 -0.29,-0.3 -0.78,-0.3 -1.08,0 -0.15,0.15 -0.23,0.33 -0.23,0.54 0,0.21 0.08,0.39 0.23,0.54 0.15,0.15 0.33,0.23 0.54,0.23 z"
           id="path2"
           style="fill:#012447;fill-opacity:1" />
        <path
           class="cls-1"
           d="m 319.28,1128.84 c -0.15,0.15 -0.23,0.33 -0.23,0.54 0,0.21 0.08,0.4 0.23,0.55 0.15,0.14 0.34,0.22 0.54,0.22 0.2,0 0.39,-0.08 0.54,-0.23 0.14,-0.15 0.22,-0.33 0.22,-0.54 0,-0.21 -0.07,-0.39 -0.22,-0.54 -0.3,-0.29 -0.77,-0.29 -1.08,0 z"
           id="path3"
           style="fill:#012447;fill-opacity:1" />
        <path
           class="cls-1"
           d="m 322.77,1128.85 c -0.16,0.15 -0.23,0.33 -0.23,0.54 0,0.21 0.08,0.39 0.23,0.54 0.15,0.15 0.33,0.23 0.54,0.23 0.21,0 0.39,-0.08 0.54,-0.23 0.15,-0.15 0.22,-0.33 0.22,-0.54 0,-0.21 -0.08,-0.39 -0.22,-0.54 -0.3,-0.29 -0.78,-0.29 -1.08,0 z"
           id="path4"
           style="fill:#012447;fill-opacity:1" />
        <path
           class="cls-1"
           d="m 325.42,1121.85 h -1.33 v 4.76 h -1.8 c -0.61,0 -1.06,-0.15 -1.35,-0.45 -0.29,-0.3 -0.44,-0.77 -0.44,-1.4 v -2.92 h -1.33 v 2.92 c 0,1.26 -0.57,1.84 -1.8,1.84 -0.61,0 -1.06,-0.15 -1.35,-0.45 -0.29,-0.3 -0.44,-0.77 -0.44,-1.4 v -2.92 h -1.33 v 2.92 c 0,1.26 -0.57,1.84 -1.8,1.84 h -0.06 c -1.05,0 -1.59,-0.45 -1.7,-1.4 V 1125 c 0,-1.01 -0.44,-1.84 -1.31,-2.46 -0.76,-0.54 -1.85,-0.92 -3.24,-1.14 0.48,-0.31 1.06,-0.6 1.72,-0.87 0.86,-0.35 1.81,-0.64 2.82,-0.84 l 0.19,-0.04 -0.26,-1.29 -0.19,0.03 c -1.07,0.19 -2.12,0.51 -3.11,0.95 -0.99,0.43 -1.9,0.96 -2.7,1.56 l -0.09,0.06 0.15,1.52 h 0.16 c 1.5,0.12 2.65,0.4 3.41,0.85 0.74,0.43 1.09,0.97 1.09,1.67 0,0.53 -0.16,0.91 -0.48,1.18 -0.33,0.27 -0.84,0.41 -1.51,0.41 h -36.25 v -4.76 h -1.33 v 6.34 c 0,0.41 -0.07,0.71 -0.2,0.87 -0.21,0.26 -0.63,0.29 -1.35,0.14 l -0.19,-0.04 -0.28,1.22 0.18,0.05 c 0.43,0.11 0.83,0.17 1.18,0.17 0.67,0 1.17,-0.21 1.51,-0.62 0.32,-0.4 0.49,-1 0.49,-1.78 v -0.29 h 36.25 c 0.66,0 1.24,-0.11 1.73,-0.33 0.4,-0.18 0.73,-0.42 0.99,-0.73 0.47,0.71 1.27,1.06 2.36,1.06 h 0.19 v -0.02 c 0.54,-0.02 1.03,-0.12 1.44,-0.33 0.36,-0.18 0.67,-0.44 0.91,-0.76 0.48,0.73 1.28,1.1 2.39,1.1 h 0.19 v -0.02 c 0.54,-0.02 1.03,-0.12 1.44,-0.33 0.36,-0.18 0.67,-0.44 0.91,-0.76 0.48,0.73 1.28,1.1 2.39,1.1 0,0 0,0 0,0 h 3.14 v -6.06 z"
           id="path5"
           style="fill:#012447;fill-opacity:1" />
        <path
           class="cls-1"
           d="m 324.74,1128.85 c -0.15,0.14 -0.23,0.33 -0.23,0.54 0,0.21 0.08,0.39 0.23,0.54 0.15,0.15 0.34,0.23 0.54,0.23 0.2,0 0.39,-0.08 0.54,-0.23 0.15,-0.15 0.22,-0.33 0.22,-0.54 0,-0.21 -0.08,-0.39 -0.22,-0.54 -0.29,-0.29 -0.77,-0.29 -1.08,0 z"
           id="path6"
           style="fill:#012447;fill-opacity:1" />
        <path
           class="cls-1"
           d="m 341.47,1128.85 c -0.15,0.14 -0.23,0.33 -0.23,0.54 0,0.21 0.08,0.39 0.23,0.54 0.15,0.15 0.34,0.23 0.54,0.23 0.2,0 0.39,-0.08 0.54,-0.23 0.15,-0.15 0.22,-0.33 0.22,-0.54 0,-0.21 -0.08,-0.39 -0.22,-0.54 -0.3,-0.29 -0.77,-0.29 -1.08,0 z"
           id="path7"
           style="fill:#012447;fill-opacity:1" />
        <path
           class="cls-1"
           d="m 339.5,1128.85 c -0.16,0.15 -0.23,0.33 -0.23,0.54 0,0.21 0.08,0.39 0.23,0.54 0.15,0.15 0.33,0.23 0.54,0.23 0.21,0 0.39,-0.08 0.54,-0.23 0.15,-0.15 0.22,-0.33 0.22,-0.54 0,-0.21 -0.08,-0.39 -0.22,-0.54 -0.29,-0.3 -0.78,-0.29 -1.08,0 z"
           id="path8"
           style="fill:#012447;fill-opacity:1" />
        <path
           class="cls-1"
           d="m 353.43,1126.61 c -0.24,0 -0.37,-0.05 -0.43,-0.09 -0.08,-0.06 -0.15,-0.17 -0.2,-0.33 -0.06,-0.2 -0.14,-0.54 -0.22,-1.01 -0.14,-0.83 -0.36,-1.52 -0.63,-2.07 -0.29,-0.55 -0.66,-0.99 -1.12,-1.3 -0.4,-0.27 -0.84,-0.47 -1.33,-0.59 -1,-0.26 -2.08,-0.24 -2.97,-0.01 l -0.17,0.05 0.24,1.31 0.2,-0.06 c 0.65,-0.19 1.49,-0.21 2.27,-0.02 0.36,0.09 0.68,0.23 0.96,0.41 0.31,0.21 0.57,0.51 0.76,0.89 0.2,0.4 0.36,0.94 0.48,1.61 0.03,0.16 0.05,0.28 0.06,0.38 0.06,0.35 0.12,0.63 0.17,0.84 h -8 c -0.61,0 -1.06,-0.15 -1.35,-0.45 -0.29,-0.3 -0.44,-0.77 -0.44,-1.4 v -2.92 h -1.33 v 2.92 c 0,1.26 -0.57,1.84 -1.8,1.84 h -1.18 v -8.14 h -1.33 v 8.19 c 0,2.02 -0.88,3 -2.69,3 -0.78,0 -1.44,-0.2 -1.95,-0.6 -0.49,-0.39 -0.75,-1.07 -0.75,-2.03 0,-0.63 0.12,-1.37 0.36,-2.2 l 0.07,-0.25 h -1.35 l -0.04,0.14 c -0.24,0.88 -0.36,1.68 -0.36,2.38 0,1.35 0.39,2.34 1.17,2.95 0.76,0.59 1.72,0.9 2.84,0.9 1.12,0 1.97,-0.27 2.65,-0.8 0.65,-0.51 1.08,-1.26 1.27,-2.25 h 1.47 v -0.02 c 0.54,-0.02 1.03,-0.12 1.44,-0.33 0.36,-0.18 0.67,-0.44 0.91,-0.76 0.48,0.73 1.28,1.1 2.39,1.1 h 10.13 v -1.3 h -0.19 z"
           id="path9"
           style="fill:#012447;fill-opacity:1" />
        <path
           class="cls-1"
           d="m 349.08,1128.85 c -0.16,0.15 -0.23,0.33 -0.23,0.54 0,0.21 0.08,0.41 0.23,0.55 0.15,0.15 0.33,0.22 0.54,0.22 0.21,0 0.39,-0.08 0.54,-0.23 0.15,-0.15 0.22,-0.33 0.22,-0.54 0,-0.21 -0.08,-0.39 -0.22,-0.54 -0.29,-0.3 -0.78,-0.29 -1.08,0 z"
           id="path10"
           style="fill:#012447;fill-opacity:1" />
      </g>
      <path
         class="cls-1"
         d="m 236.53,1125.07 c 0.09,-0.07 0.2,-0.11 0.33,-0.11 h 23.73 v 0.8 h -23.73 c -0.14,0 -0.26,-0.04 -0.34,-0.11 -0.08,-0.07 -0.12,-0.17 -0.12,-0.29 0,-0.12 0.04,-0.22 0.13,-0.29 z"
         id="path11"
         style="fill:#012447;fill-opacity:1" />
      <path
         class="cls-1"
         d="m 385.7,1125.65 c -0.09,0.07 -0.2,0.11 -0.33,0.11 h -23.73 v -0.8 h 23.73 c 0.14,0 0.26,0.04 0.34,0.11 0.08,0.07 0.12,0.17 0.12,0.29 0,0.12 -0.04,0.22 -0.13,0.29 z"
         id="path12"
         style="fill:#012447;fill-opacity:1" />
      <g
         id="g22"
         style="fill:#012447;fill-opacity:1">
        <path
           class="cls-1"
           d="m 240.33,1099.65 c 0,0.69 -0.11,1.17 -0.34,1.45 -0.23,0.28 -0.6,0.42 -1.11,0.42 -0.43,0 -1.02,-0.09 -1.77,-0.27 l -0.71,3.19 c 1.1,0.36 2.13,0.54 3.09,0.54 1.46,0 2.58,-0.45 3.37,-1.35 0.79,-0.9 1.18,-2.23 1.18,-3.98 v -11.79 h -3.71 z"
           id="path13"
           style="fill:#012447;fill-opacity:1" />
        <path
           class="cls-1"
           d="m 297.32,1085.64 c 0.57,0 1.06,-0.2 1.47,-0.61 0.41,-0.41 0.61,-0.9 0.61,-1.47 0,-0.57 -0.2,-1.06 -0.61,-1.47 -0.41,-0.41 -0.9,-0.61 -1.47,-0.61 -0.57,0 -1.06,0.2 -1.47,0.61 -0.41,0.41 -0.61,0.9 -0.61,1.47 0,0.57 0.2,1.07 0.61,1.47 0.41,0.4 0.9,0.61 1.47,0.61 z"
           id="path14"
           style="fill:#012447;fill-opacity:1" />
        <path
           class="cls-1"
           d="m 292.43,1085.64 c 0.57,0 1.06,-0.2 1.47,-0.61 0.41,-0.41 0.61,-0.9 0.61,-1.47 0,-0.57 -0.2,-1.06 -0.61,-1.47 -0.41,-0.41 -0.9,-0.61 -1.47,-0.61 -0.57,0 -1.06,0.2 -1.47,0.61 -0.41,0.41 -0.61,0.9 -0.61,1.47 0,0.57 0.2,1.07 0.61,1.47 0.41,0.4 0.9,0.61 1.47,0.61 z"
           id="path15"
           style="fill:#012447;fill-opacity:1" />
        <path
           class="cls-1"
           d="m 303.59,1096.01 h -3.07 c -1.39,0 -2.39,-0.3 -3,-0.91 -0.52,-0.56 -0.79,-1.3 -0.79,-2.23 v -5.01 h -3.71 v 5.01 c 0,1.05 -0.29,1.83 -0.86,2.36 -0.57,0.53 -1.31,0.79 -2.21,0.79 -2.26,0 -3.5,-0.78 -3.73,-2.33 -0.05,-1.72 -0.77,-3.15 -2.15,-4.29 -1.38,-1.14 -3.3,-1.88 -5.74,-2.22 1.11,-0.62 2.4,-1.16 3.84,-1.62 1.45,-0.46 2.91,-0.78 4.38,-0.96 l -0.54,-3.64 c -2.69,0.43 -4.97,1 -6.84,1.73 -1.87,0.73 -3.64,1.72 -5.29,2.96 l 0.74,4.62 c 1.59,0 2.98,0.15 4.16,0.44 1.19,0.29 2.1,0.71 2.75,1.25 0.65,0.54 0.97,1.17 0.97,1.89 0,0.57 -0.1,1.01 -0.31,1.31 -0.21,0.3 -0.55,0.52 -1.04,0.65 -0.49,0.13 -1.19,0.2 -2.09,0.2 h -28.71 v -14.39 h -3.71 v 18.03 h 32.42 c 2.57,0 4.47,-0.61 5.7,-1.84 1.05,1.23 2.78,1.84 5.18,1.84 1.15,0 2.17,-0.19 3.06,-0.57 0.89,-0.38 1.63,-0.91 2.22,-1.6 0.92,1.44 2.68,2.16 5.28,2.16 h 6.78 v -11.79 h -3.71 v 8.16 z"
           id="path16"
           style="fill:#012447;fill-opacity:1" />
        <path
           class="cls-1"
           d="m 304.3,1101.83 c -0.57,0 -1.06,0.2 -1.47,0.62 -0.41,0.41 -0.61,0.9 -0.61,1.47 0,0.57 0.2,1.06 0.61,1.47 0.41,0.41 0.9,0.61 1.47,0.61 0.57,0 1.06,-0.2 1.47,-0.61 0.41,-0.41 0.61,-0.9 0.61,-1.47 0,-0.57 -0.2,-1.07 -0.61,-1.47 -0.41,-0.41 -0.9,-0.62 -1.47,-0.62 z"
           id="path17"
           style="fill:#012447;fill-opacity:1" />
        <rect
           class="cls-1"
           x="309.89999"
           y="1081.62"
           width="3.71"
           height="18.030001"
           id="rect17"
           style="fill:#012447;fill-opacity:1" />
        <path
           class="cls-1"
           d="m 311.46,1105.45 c -0.25,-0.22 -0.38,-0.51 -0.38,-0.87 0,-0.36 0.11,-0.6 0.34,-0.78 0.23,-0.17 0.52,-0.26 0.88,-0.26 0.28,0 0.59,0.06 0.93,0.2 l 0.76,-1.47 c -0.61,-0.29 -1.22,-0.44 -1.84,-0.44 -0.8,0 -1.48,0.23 -2.04,0.7 -0.56,0.47 -0.84,1.07 -0.84,1.8 0,0.62 0.19,1.11 0.57,1.45 h -0.57 v 1.55 h 5.11 v -1.55 h -1.96 c -0.39,0 -0.72,-0.11 -0.97,-0.33 z"
           id="path18"
           style="fill:#012447;fill-opacity:1" />
        <path
           class="cls-1"
           d="m 366.96,1101.83 c -0.57,0 -1.06,0.2 -1.47,0.62 -0.41,0.41 -0.61,0.9 -0.61,1.47 0,0.57 0.2,1.06 0.61,1.47 0.41,0.41 0.9,0.61 1.47,0.61 0.57,0 1.06,-0.2 1.47,-0.61 0.41,-0.41 0.61,-0.9 0.61,-1.47 0,-0.57 -0.21,-1.07 -0.61,-1.47 -0.4,-0.4 -0.9,-0.62 -1.47,-0.62 z"
           id="path19"
           style="fill:#012447;fill-opacity:1" />
        <path
           class="cls-1"
           d="m 378.36,1085.64 c 0.57,0 1.06,-0.2 1.47,-0.61 0.41,-0.41 0.61,-0.9 0.61,-1.47 0,-0.57 -0.2,-1.06 -0.61,-1.47 -0.41,-0.41 -0.9,-0.61 -1.47,-0.61 -0.57,0 -1.07,0.2 -1.47,0.61 -0.41,0.41 -0.61,0.9 -0.61,1.47 0,0.57 0.2,1.07 0.61,1.47 0.41,0.41 0.9,0.61 1.47,0.61 z"
           id="path20"
           style="fill:#012447;fill-opacity:1" />
        <path
           class="cls-1"
           d="m 384.72,1082.08 c -0.41,-0.41 -0.9,-0.61 -1.47,-0.61 -0.57,0 -1.06,0.2 -1.47,0.61 -0.41,0.41 -0.61,0.9 -0.61,1.47 0,0.57 0.2,1.07 0.61,1.47 0.41,0.4 0.9,0.61 1.47,0.61 0.57,0 1.06,-0.2 1.47,-0.61 0.41,-0.41 0.61,-0.9 0.61,-1.47 0,-0.57 -0.21,-1.06 -0.61,-1.47 z"
           id="path21"
           style="fill:#012447;fill-opacity:1" />
        <path
           class="cls-1"
           d="m 379,1096.01 h -3.66 c -0.49,0 -0.86,-0.02 -1.1,-0.05 -0.25,-0.03 -0.45,-0.13 -0.6,-0.28 -0.15,-0.15 -0.27,-0.41 -0.33,-0.78 -0.31,-1.75 -0.77,-3.2 -1.38,-4.35 -0.6,-1.15 -1.4,-2.05 -2.38,-2.7 -1.69,-1.13 -3.64,-1.69 -5.87,-1.69 -1.21,0 -2.43,0.16 -3.66,0.49 l 0.42,3.41 c 0.92,-0.26 1.83,-0.39 2.75,-0.39 1.69,0 3.1,0.39 4.23,1.18 0.56,0.39 1.01,0.95 1.36,1.68 0.35,0.73 0.63,1.72 0.85,2.96 0.02,0.11 0.03,0.21 0.05,0.29 0.02,0.08 0.03,0.16 0.05,0.22 h -10.81 c 0,0 -0.02,0 -0.02,0 v 0 c -1.39,0 -2.39,-0.31 -3,-0.91 -0.46,-0.49 -0.71,-1.13 -0.76,-1.91 v 0 c 0,-1.3 -0.29,-2.48 -0.87,-3.55 -0.58,-1.07 -1.38,-1.92 -2.38,-2.54 -1,-0.62 -2.14,-0.93 -3.4,-0.93 -1.55,0 -2.88,0.51 -3.97,1.55 -1.09,1.03 -1.89,2.48 -2.39,4.35 -0.07,0.21 -0.18,0.67 -0.34,1.38 -0.16,0.69 -0.31,1.2 -0.43,1.52 -0.12,0.33 -0.32,0.59 -0.6,0.77 -0.28,0.19 -0.68,0.28 -1.2,0.28 h -4.1 l 2.63,-2.63 v -0.05 c 0,-1.33 -0.32,-2.54 -0.97,-3.64 -0.65,-1.1 -1.53,-1.96 -2.65,-2.59 -1.12,-0.63 -2.37,-0.95 -3.75,-0.95 -1.38,0 -2.6,0.31 -3.72,0.95 -1.12,0.63 -2.01,1.49 -2.65,2.59 -0.64,1.1 -0.97,2.31 -0.97,3.64 v 0.05 l 2.82,2.85 c -1.62,0.33 -2.87,0.99 -3.73,1.98 -0.86,0.99 -1.3,2.27 -1.3,3.84 0,1.93 0.65,3.42 1.94,4.47 1.29,1.05 3.13,1.57 5.5,1.57 h 3.46 v -3.61 h -3.46 c -2.49,0 -3.73,-0.81 -3.73,-2.43 0,-0.75 0.27,-1.34 0.82,-1.77 0.55,-0.43 1.39,-0.64 2.52,-0.64 1.01,0 1.85,-0.59 2.51,-1.77 0.67,1.18 1.51,1.77 2.51,1.77 h 6.34 c 0.9,0 1.72,-0.16 2.47,-0.48 0.74,-0.32 1.36,-0.78 1.86,-1.39 0.74,0.62 1.53,1.09 2.39,1.4 0.86,0.31 1.73,0.47 2.62,0.47 1.13,0 2.17,-0.25 3.12,-0.76 0.65,-0.35 1.2,-0.81 1.67,-1.37 0.15,0.23 0.31,0.47 0.5,0.66 0.96,0.98 2.53,1.47 4.73,1.47 v 0 c 0,0 0.02,0 0.02,0 h 23.8 v -11.79 h -3.71 v 8.16 z m -48.32,0.05 -3.66,-3.76 c 0.05,-0.36 0.24,-0.73 0.56,-1.1 0.32,-0.37 0.77,-0.69 1.31,-0.95 0.55,-0.25 1.14,-0.38 1.78,-0.38 0.64,0 1.23,0.13 1.78,0.38 0.55,0.25 0.99,0.57 1.31,0.95 0.32,0.38 0.52,0.74 0.57,1.1 l -3.66,3.76 z m 19.85,-0.6 c -0.59,0.53 -1.33,0.8 -2.24,0.8 -0.52,0 -1.06,-0.09 -1.62,-0.28 -0.56,-0.19 -1.07,-0.47 -1.55,-0.85 0.06,-0.2 0.11,-0.37 0.13,-0.53 0.03,-0.16 0.05,-0.29 0.09,-0.4 0.08,-0.52 0.2,-1.02 0.37,-1.5 0.33,-0.98 0.7,-1.7 1.12,-2.15 0.42,-0.45 0.96,-0.68 1.63,-0.68 0.88,0 1.6,0.32 2.14,0.95 0.54,0.63 0.81,1.42 0.81,2.37 0,0.95 -0.29,1.74 -0.88,2.27 z"
           id="path22"
           style="fill:#012447;fill-opacity:1" />
      </g>
    </g>
    <g
       id="g27"
       style="fill:#012447;fill-opacity:1">
      <path
         class="cls-1"
         d="m 184.42,1084.14 h 25.76 v 10.53 h -25.76 c -15.38,0 -27.89,12.51 -27.89,27.89 v 5.26 H 146 v -5.26 c 0,-21.18 17.24,-38.42 38.42,-38.42 z"
         id="path23"
         style="fill:#012447;fill-opacity:1" />
      <rect
         class="cls-1"
         x="112.85"
         y="1084.14"
         width="43.68"
         height="10.53"
         id="rect23"
         style="fill:#012447;fill-opacity:1" />
      <rect
         class="cls-1"
         x="92.349998"
         y="1100.71"
         width="10.53"
         height="27.1"
         id="rect24"
         style="fill:#012447;fill-opacity:1" />
      <rect
         class="cls-1"
         x="146"
         y="1084.14"
         width="10.53"
         height="43.68"
         id="rect25"
         style="fill:#012447;fill-opacity:1" />
      <path
         class="cls-1"
         d="M 118.11,1127.82 H 92.35 v -10.53 h 25.76 c 15.38,0 27.89,-12.51 27.89,-27.89 v -5.26 h 10.53 v 5.26 c 0,21.18 -17.24,38.42 -38.42,38.42 z"
         id="path25"
         style="fill:#012447;fill-opacity:1" />
      <rect
         class="cls-1"
         x="97.059998"
         y="1084.14"
         width="10.53"
         height="10.53"
         id="rect26"
         style="fill:#012447;fill-opacity:1" />
      <rect
         class="cls-1"
         x="81.82"
         y="1084.14"
         width="10.53"
         height="10.53"
         id="rect27"
         style="fill:#012447;fill-opacity:1" />
    </g>
  </g>
</svg>
